<svg width="27" height="27" viewBox="0 0 27 27" fill="none" xmlns="http://www.w3.org/2000/svg">
<path fill-rule="evenodd" clip-rule="evenodd" d="M26 13.5C26 20.4036 20.4036 26 13.5 26C6.59644 26 1 20.4036 1 13.5C1 6.59644 6.59644 1 13.5 1C20.4036 1 26 6.59644 26 13.5ZM27 13.5C27 20.9558 20.9558 27 13.5 27C6.04416 27 0 20.9558 0 13.5C0 6.04416 6.04416 0 13.5 0C20.9558 0 27 6.04416 27 13.5ZM13.5 12C15.433 12 17 10.433 17 8.5C17 6.567 15.433 5 13.5 5C11.567 5 10 6.567 10 8.5C10 10.433 11.567 12 13.5 12ZM18 8.5C18 10.3929 16.8313 12.0128 15.1761 12.6775C16.6725 12.9982 18.058 13.7443 19.1569 14.8431C20.6571 16.3434 21.5 18.3783 21.5 20.5C21.5 20.7761 21.2761 21 21 21C20.7239 21 20.5 20.7761 20.5 20.5C20.5 18.6435 19.7625 16.863 18.4497 15.5503C17.137 14.2375 15.3565 13.5 13.5 13.5C11.6435 13.5 9.86301 14.2375 8.55025 15.5503C7.2375 16.863 6.5 18.6435 6.5 20.5C6.5 20.7761 6.27614 21 6 21C5.72386 21 5.5 20.7761 5.5 20.5C5.5 18.3783 6.34286 16.3434 7.84315 14.8431C8.94197 13.7443 10.3275 12.9982 11.8239 12.6775C10.1687 12.0128 9 10.3929 9 8.5C9 6.01472 11.0147 4 13.5 4C15.9853 4 18 6.01472 18 8.5Z" fill="black"/>
</svg>
